<?xml version="1.0" encoding="UTF-8"?>
<svg xmlns="http://www.w3.org/2000/svg" xmlns:xlink="http://www.w3.org/1999/xlink" width="70px" height="70px" viewBox="0 0 70 70" version="1.1">
<g id="surface1">
<path style=" stroke:none;fill-rule:nonzero;fill:rgb(10.980392%,19.607843%,29.019609%);fill-opacity:1;" d="M 50.3125 16.160156 C 51.765625 17.511719 52.5625 19.164062 52.671875 21.136719 C 52.738281 23.363281 52.261719 25.351562 50.765625 27.074219 C 49.742188 28.140625 48.65625 28.773438 47.320312 29.398438 C 47.320312 29.8125 47.53125 30.027344 47.757812 30.371094 C 48.183594 31.027344 48.566406 31.695312 48.933594 32.382812 C 49.132812 32.75 49.34375 33.105469 49.558594 33.460938 C 49.847656 33.933594 50.121094 34.410156 50.382812 34.894531 C 52.601562 39.449219 52.601562 39.449219 56.398438 42.398438 C 56.671875 42.476562 56.949219 42.546875 57.222656 42.613281 C 57.539062 42.699219 57.539062 42.699219 57.679688 42.839844 C 57.691406 43.050781 57.691406 43.265625 57.6875 43.480469 C 57.6875 43.59375 57.6875 43.710938 57.683594 43.828125 C 57.683594 43.964844 57.683594 43.964844 57.679688 44.101562 C 56.902344 44.101562 56.121094 44.105469 55.34375 44.109375 C 55.078125 44.109375 54.816406 44.109375 54.550781 44.109375 C 53.796875 44.113281 53.042969 44.109375 52.285156 44.101562 C 51.960938 44.101562 51.636719 44.105469 51.3125 44.117188 C 50.011719 44.109375 50.011719 44.109375 49.550781 43.707031 C 49.320312 43.355469 49.164062 43.015625 49.007812 42.621094 C 48.945312 42.488281 48.886719 42.351562 48.820312 42.214844 C 48.699219 41.941406 48.578125 41.667969 48.460938 41.394531 C 48.253906 40.910156 48.019531 40.441406 47.785156 39.96875 C 47.742188 39.882812 47.699219 39.800781 47.65625 39.710938 C 47.121094 38.636719 46.53125 37.59375 45.949219 36.546875 C 45.207031 35.214844 44.488281 33.875 43.804688 32.511719 C 43.710938 32.328125 43.710938 32.328125 43.617188 32.144531 C 43.566406 32.039062 43.511719 31.933594 43.457031 31.828125 C 43.027344 31.035156 43.027344 31.035156 42.292969 30.59375 C 41.992188 30.578125 41.699219 30.585938 41.394531 30.609375 C 41.292969 30.609375 41.1875 30.613281 41.082031 30.617188 C 40.828125 30.628906 40.574219 30.644531 40.320312 30.660156 C 40.40625 35 40.40625 35 40.601562 39.339844 C 40.414062 39.339844 40.230469 39.339844 40.039062 39.339844 C 39.96875 39.1875 39.902344 39.035156 39.828125 38.875 C 38.988281 37.199219 37.660156 35.78125 36.304688 34.507812 C 35.925781 34.082031 35.960938 33.628906 35.964844 33.089844 C 35.964844 32.925781 35.960938 32.761719 35.960938 32.59375 C 35.964844 32.414062 35.964844 32.230469 35.964844 32.046875 C 35.964844 31.855469 35.964844 31.664062 35.964844 31.46875 C 35.964844 30.949219 35.964844 30.429688 35.964844 29.90625 C 35.964844 29.363281 35.964844 28.820312 35.96875 28.273438 C 35.96875 27.246094 35.96875 26.214844 35.96875 25.183594 C 35.972656 24.007812 35.972656 22.835938 35.972656 21.664062 C 35.972656 19.25 35.976562 16.835938 35.980469 14.421875 C 36.609375 14.234375 37.183594 14.097656 37.839844 14.050781 C 38.003906 14.039062 38.171875 14.027344 38.339844 14.015625 C 38.515625 14.003906 38.6875 13.992188 38.867188 13.984375 C 39.136719 13.964844 39.136719 13.964844 39.414062 13.945312 C 43.203125 13.714844 47.222656 13.601562 50.3125 16.160156 Z M 40.320312 15.960938 C 40.320312 20.117188 40.320312 24.277344 40.320312 28.558594 C 42.597656 28.558594 44.507812 28.492188 46.203125 26.890625 C 47.523438 25.445312 47.796875 23.984375 47.785156 22.066406 C 47.78125 21.925781 47.78125 21.785156 47.78125 21.636719 C 47.753906 19.882812 47.421875 18.414062 46.226562 17.074219 C 45.179688 16.078125 43.878906 15.660156 42.453125 15.652344 C 42.292969 15.652344 42.128906 15.648438 41.957031 15.648438 C 41.332031 15.671875 41.332031 15.671875 40.320312 15.960938 Z M 40.320312 15.960938 "/>
<path style=" stroke:none;fill-rule:nonzero;fill:rgb(10.588235%,19.607843%,28.235295%);fill-opacity:1;" d="M 41.019531 43.679688 C 41.359375 43.816406 41.542969 43.894531 41.722656 44.21875 C 41.757812 44.320312 41.792969 44.425781 41.832031 44.53125 C 42.398438 46.089844 42.398438 46.089844 43.609375 47.144531 C 43.996094 47.3125 44.386719 47.46875 44.78125 47.621094 C 45.285156 47.824219 45.75 48.089844 46.226562 48.351562 C 47.121094 48.835938 48.035156 49.277344 48.957031 49.707031 C 49.984375 50.191406 50.96875 50.707031 51.945312 51.285156 C 52.417969 51.550781 52.898438 51.777344 53.398438 51.984375 C 53.621094 52.078125 53.621094 52.078125 53.761719 52.21875 C 53.753906 52.492188 53.738281 52.761719 53.714844 53.035156 C 53.703125 53.214844 53.6875 53.398438 53.671875 53.585938 C 53.632812 54.070312 53.578125 54.550781 53.523438 55.035156 C 53.316406 56.925781 53.238281 58.820312 53.15625 60.71875 C 53.148438 60.902344 53.148438 60.902344 53.140625 61.085938 C 53.128906 61.316406 53.121094 61.550781 53.113281 61.78125 C 53.074219 62.5625 53.074219 62.5625 52.921875 62.71875 C 52.015625 62.652344 51.164062 62.484375 50.285156 62.265625 C 50.09375 62.21875 50.09375 62.21875 49.902344 62.171875 C 49.507812 62.074219 49.113281 61.976562 48.71875 61.878906 C 48.601562 61.851562 48.480469 61.820312 48.355469 61.789062 C 47.777344 61.648438 47.203125 61.503906 46.625 61.355469 C 46.128906 61.230469 45.632812 61.113281 45.136719 60.996094 C 45.007812 60.964844 44.878906 60.933594 44.75 60.902344 C 44.503906 60.84375 44.257812 60.785156 44.011719 60.730469 C 43.898438 60.703125 43.789062 60.675781 43.675781 60.648438 C 43.578125 60.625 43.480469 60.605469 43.378906 60.582031 C 42.976562 60.425781 42.769531 60.199219 42.578125 59.8125 C 42.546875 59.722656 42.511719 59.628906 42.480469 59.535156 C 42.441406 59.429688 42.402344 59.328125 42.363281 59.21875 C 42.324219 59.105469 42.285156 58.996094 42.246094 58.878906 C 42.203125 58.761719 42.160156 58.644531 42.117188 58.523438 C 41.765625 57.546875 41.429688 56.5625 41.089844 55.578125 C 40.828125 54.832031 40.539062 54.101562 40.222656 53.375 C 39.980469 52.773438 39.769531 52.160156 39.558594 51.546875 C 38.960938 49.820312 38.296875 48.132812 37.519531 46.480469 C 37.976562 45.992188 38.488281 45.617188 39.035156 45.238281 C 39.730469 44.75 40.390625 44.25 41.019531 43.679688 Z M 41.019531 43.679688 "/>
<path style=" stroke:none;fill-rule:nonzero;fill:rgb(60.392159%,54.11765%,34.117648%);fill-opacity:1;" d="M 19.738281 22.121094 C 19.878906 22.210938 20.015625 22.304688 20.160156 22.398438 C 20.160156 22.492188 20.160156 22.585938 20.160156 22.679688 C 20.242188 22.714844 20.324219 22.75 20.410156 22.785156 C 21.601562 23.453125 22.152344 25.03125 22.503906 26.269531 C 22.71875 27.257812 23.007812 29.027344 22.539062 29.960938 C 21.777344 30.003906 21.195312 29.871094 20.5 29.574219 C 20.367188 29.523438 20.367188 29.523438 20.234375 29.46875 C 18.746094 28.855469 18.746094 28.855469 18.457031 28.183594 C 18.328125 27.667969 18.308594 27.230469 18.316406 26.699219 C 18.316406 26.605469 18.320312 26.507812 18.320312 26.414062 C 18.320312 26.113281 18.328125 25.8125 18.332031 25.515625 C 18.335938 25.214844 18.339844 24.914062 18.339844 24.613281 C 18.34375 24.339844 18.347656 24.070312 18.351562 23.796875 C 18.371094 23.390625 18.371094 23.390625 18.199219 23.101562 C 17.371094 23.152344 16.84375 23.363281 16.238281 23.941406 C 15.816406 24.527344 15.730469 25.082031 15.753906 25.789062 C 15.9375 26.859375 16.53125 27.867188 17.359375 28.558594 C 17.449219 28.644531 17.535156 28.730469 17.625 28.820312 C 19.796875 30.902344 23.164062 31.476562 26.039062 31.988281 C 30.640625 32.820312 35.328125 34.363281 38.167969 38.34375 C 38.550781 38.9375 38.875 39.554688 39.199219 40.179688 C 39.277344 40.324219 39.359375 40.472656 39.441406 40.621094 C 39.515625 40.769531 39.59375 40.914062 39.671875 41.0625 C 39.742188 41.195312 39.8125 41.328125 39.886719 41.464844 C 40.066406 41.921875 40.109375 42.210938 40.039062 42.699219 C 39.675781 43.277344 39.191406 43.65625 38.648438 44.066406 C 38.507812 44.175781 38.363281 44.28125 38.214844 44.394531 C 37.820312 44.648438 37.558594 44.75 37.101562 44.800781 C 36.164062 43.484375 36.164062 43.484375 35.777344 42.839844 C 33.453125 39.074219 29.945312 37.890625 25.867188 36.925781 C 25.617188 36.867188 25.371094 36.808594 25.121094 36.75 C 21.394531 35.867188 17.535156 34.863281 15.261719 31.5 C 15.199219 31.421875 15.140625 31.339844 15.078125 31.257812 C 14 29.738281 13.566406 27.59375 13.808594 25.769531 C 14.070312 24.433594 14.503906 23.050781 15.679688 22.261719 C 17.070312 21.554688 18.3125 21.496094 19.738281 22.121094 Z M 19.738281 22.121094 "/>
<path style=" stroke:none;fill-rule:nonzero;fill:rgb(9.803922%,18.82353%,27.058825%);fill-opacity:1;" d="M 16.808594 14.089844 C 17.027344 14.085938 17.027344 14.085938 17.253906 14.085938 C 17.492188 14.089844 17.492188 14.089844 17.738281 14.089844 C 17.910156 14.089844 18.078125 14.089844 18.25 14.089844 C 18.714844 14.089844 19.179688 14.089844 19.644531 14.09375 C 20.128906 14.09375 20.613281 14.09375 21.097656 14.09375 C 21.914062 14.09375 22.726562 14.097656 23.539062 14.101562 C 24.585938 14.105469 25.632812 14.105469 26.679688 14.105469 C 27.578125 14.105469 28.476562 14.109375 29.375 14.109375 C 29.664062 14.113281 29.953125 14.113281 30.242188 14.113281 C 30.78125 14.113281 31.320312 14.113281 31.855469 14.117188 C 32.019531 14.117188 32.179688 14.117188 32.34375 14.117188 C 32.492188 14.117188 32.636719 14.121094 32.785156 14.121094 C 32.914062 14.121094 33.042969 14.121094 33.171875 14.121094 C 33.460938 14.140625 33.460938 14.140625 33.601562 14.28125 C 33.613281 14.472656 33.617188 14.664062 33.617188 14.855469 C 33.617188 14.976562 33.617188 15.097656 33.621094 15.222656 C 33.617188 15.421875 33.617188 15.421875 33.617188 15.625 C 33.617188 15.761719 33.617188 15.898438 33.617188 16.039062 C 33.617188 16.324219 33.617188 16.613281 33.617188 16.898438 C 33.617188 17.339844 33.617188 17.78125 33.617188 18.21875 C 33.617188 18.5 33.617188 18.777344 33.617188 19.054688 C 33.617188 19.1875 33.621094 19.320312 33.621094 19.457031 C 33.617188 19.640625 33.617188 19.640625 33.617188 19.828125 C 33.617188 19.9375 33.617188 20.046875 33.617188 20.15625 C 33.601562 20.441406 33.601562 20.441406 33.460938 20.859375 C 32.953125 20.859375 32.445312 20.859375 31.921875 20.859375 C 31.90625 20.632812 31.90625 20.632812 31.886719 20.398438 C 31.773438 19.027344 31.621094 17.519531 30.519531 16.554688 C 30.054688 16.261719 29.664062 16.222656 29.128906 16.210938 C 28.917969 16.207031 28.917969 16.207031 28.699219 16.203125 C 28.550781 16.199219 28.402344 16.199219 28.246094 16.195312 C 28.109375 16.191406 27.972656 16.191406 27.832031 16.1875 C 27.320312 16.179688 26.804688 16.167969 26.292969 16.160156 C 25.148438 16.140625 24 16.121094 22.820312 16.101562 C 22.773438 18.457031 22.726562 20.8125 22.679688 23.238281 C 22.585938 23.238281 22.496094 23.238281 22.398438 23.238281 C 22.183594 22.988281 22.183594 22.988281 21.9375 22.652344 C 21.269531 21.746094 20.652344 21.191406 19.625 20.746094 C 19.527344 20.703125 19.433594 20.660156 19.332031 20.613281 C 19.09375 20.507812 18.859375 20.402344 18.621094 20.300781 C 18.613281 20.152344 18.609375 20.003906 18.605469 19.855469 C 18.570312 18.070312 18.570312 18.070312 17.820312 16.507812 C 17.441406 16.191406 17.101562 16.074219 16.632812 15.917969 C 16.183594 15.738281 16.183594 15.738281 15.820312 15.539062 C 15.617188 15.03125 15.617188 15.03125 15.679688 14.558594 C 16.003906 14.109375 16.269531 14.085938 16.808594 14.089844 Z M 16.808594 14.089844 "/>
<path style=" stroke:none;fill-rule:nonzero;fill:rgb(10.980392%,19.215687%,28.627452%);fill-opacity:1;" d="M 18.621094 36.121094 C 19.199219 36.222656 19.632812 36.417969 20.160156 36.679688 C 20.492188 36.785156 20.824219 36.878906 21.15625 36.96875 C 21.695312 37.113281 22.191406 37.246094 22.679688 37.519531 C 22.679688 37.769531 22.679688 37.769531 22.679688 38.027344 C 22.6875 39.664062 22.6875 39.664062 23.425781 41.082031 C 24.394531 41.988281 25.769531 42.046875 27.027344 42.035156 C 27.222656 42.035156 27.222656 42.035156 27.417969 42.03125 C 29.105469 42.007812 30.617188 41.972656 31.980469 40.890625 C 32.402344 40.714844 32.492188 40.75 32.910156 40.898438 C 33.703125 41.25 33.703125 41.25 34.019531 41.578125 C 34.160156 42.28125 34.160156 42.28125 34.160156 43.960938 C 28.0625 43.960938 21.964844 43.960938 15.679688 43.960938 C 15.679688 43.496094 15.679688 43.035156 15.679688 42.558594 C 15.8125 42.503906 15.945312 42.445312 16.085938 42.386719 C 17.507812 41.742188 17.507812 41.742188 18.339844 40.460938 C 18.492188 39.996094 18.507812 39.628906 18.523438 39.140625 C 18.53125 38.964844 18.535156 38.789062 18.542969 38.609375 C 18.546875 38.425781 18.554688 38.242188 18.558594 38.054688 C 18.566406 37.867188 18.570312 37.679688 18.578125 37.492188 C 18.59375 37.035156 18.605469 36.578125 18.621094 36.121094 Z M 18.621094 36.121094 "/>
<path style=" stroke:none;fill-rule:nonzero;fill:rgb(11.372549%,19.607843%,27.843139%);fill-opacity:1;" d="M 30.519531 23.800781 C 30.9375 23.800781 31.351562 23.800781 31.78125 23.800781 C 31.78125 26.339844 31.78125 28.882812 31.78125 31.5 C 30.941406 31.5 30.941406 31.5 30.652344 31.296875 C 30.40625 30.976562 30.226562 30.667969 30.039062 30.308594 C 29.675781 29.632812 29.320312 29.253906 28.59375 28.96875 C 28.125 28.835938 27.726562 28.796875 27.242188 28.785156 C 27.074219 28.78125 26.90625 28.777344 26.734375 28.773438 C 26.5625 28.769531 26.390625 28.765625 26.214844 28.761719 C 25.871094 28.753906 25.527344 28.742188 25.183594 28.734375 C 24.957031 28.730469 24.957031 28.730469 24.726562 28.722656 C 24.359375 28.699219 24.359375 28.699219 24.078125 28.558594 C 24.125 27.820312 24.171875 27.082031 24.21875 26.320312 C 24.464844 26.324219 24.714844 26.328125 24.96875 26.335938 C 25.296875 26.339844 25.625 26.34375 25.953125 26.347656 C 26.113281 26.351562 26.277344 26.351562 26.441406 26.355469 C 27.605469 26.367188 28.695312 26.304688 29.664062 25.609375 C 30.070312 25.050781 30.292969 24.453125 30.519531 23.800781 Z M 30.519531 23.800781 "/>
</g>
</svg>
