<?xml version="1.0" encoding="UTF-8"?>
<svg xmlns="http://www.w3.org/2000/svg" xmlns:xlink="http://www.w3.org/1999/xlink" width="50px" height="50px" viewBox="0 0 50 50" version="1.1">
<g id="surface1">
<path style=" stroke:none;fill-rule:nonzero;fill:rgb(10.980392%,19.607843%,29.019609%);fill-opacity:1;" d="M 35.9375 11.542969 C 36.976562 12.507812 37.542969 13.6875 37.621094 15.097656 C 37.671875 16.6875 37.328125 18.109375 36.261719 19.339844 C 35.53125 20.101562 34.753906 20.550781 33.800781 21 C 33.800781 21.292969 33.949219 21.449219 34.113281 21.695312 C 34.417969 22.164062 34.691406 22.640625 34.953125 23.128906 C 35.09375 23.394531 35.246094 23.648438 35.398438 23.902344 C 35.605469 24.238281 35.800781 24.578125 35.988281 24.925781 C 37.574219 28.179688 37.574219 28.179688 40.285156 30.285156 C 40.480469 30.339844 40.679688 30.390625 40.875 30.4375 C 41.097656 30.5 41.097656 30.5 41.199219 30.601562 C 41.207031 30.75 41.207031 30.902344 41.207031 31.058594 C 41.207031 31.136719 41.207031 31.222656 41.203125 31.304688 C 41.203125 31.402344 41.203125 31.402344 41.199219 31.5 C 40.644531 31.5 40.085938 31.503906 39.53125 31.507812 C 39.339844 31.507812 39.15625 31.507812 38.964844 31.507812 C 38.425781 31.507812 37.886719 31.507812 37.347656 31.5 C 37.113281 31.5 36.882812 31.503906 36.652344 31.511719 C 35.722656 31.507812 35.722656 31.507812 35.394531 31.21875 C 35.230469 30.96875 35.117188 30.726562 35.003906 30.445312 C 34.960938 30.347656 34.917969 30.25 34.871094 30.152344 C 34.785156 29.957031 34.699219 29.761719 34.613281 29.566406 C 34.46875 29.222656 34.300781 28.886719 34.132812 28.550781 C 34.101562 28.488281 34.070312 28.429688 34.039062 28.363281 C 33.65625 27.597656 33.238281 26.851562 32.820312 26.105469 C 32.289062 25.152344 31.777344 24.195312 31.289062 23.222656 C 31.222656 23.089844 31.222656 23.089844 31.15625 22.960938 C 31.117188 22.886719 31.078125 22.808594 31.039062 22.734375 C 30.734375 22.167969 30.734375 22.167969 30.210938 21.851562 C 29.996094 21.839844 29.785156 21.847656 29.566406 21.863281 C 29.496094 21.863281 29.417969 21.867188 29.34375 21.871094 C 29.164062 21.878906 28.980469 21.890625 28.800781 21.898438 C 28.863281 25 28.863281 25 29 28.101562 C 28.867188 28.101562 28.734375 28.101562 28.597656 28.101562 C 28.550781 27.992188 28.5 27.882812 28.449219 27.769531 C 27.847656 26.570312 26.898438 25.558594 25.933594 24.648438 C 25.660156 24.34375 25.6875 24.019531 25.6875 23.636719 C 25.6875 23.519531 25.6875 23.402344 25.6875 23.28125 C 25.6875 23.152344 25.6875 23.023438 25.6875 22.890625 C 25.6875 22.753906 25.6875 22.617188 25.6875 22.476562 C 25.6875 22.105469 25.6875 21.734375 25.6875 21.363281 C 25.6875 20.972656 25.6875 20.585938 25.691406 20.195312 C 25.691406 19.460938 25.691406 18.726562 25.691406 17.988281 C 25.695312 17.148438 25.695312 16.3125 25.695312 15.472656 C 25.695312 13.75 25.699219 12.027344 25.699219 10.300781 C 26.148438 10.167969 26.558594 10.070312 27.027344 10.035156 C 27.144531 10.027344 27.265625 10.019531 27.386719 10.011719 C 27.511719 10.003906 27.632812 9.996094 27.761719 9.988281 C 27.953125 9.976562 27.953125 9.976562 28.152344 9.960938 C 30.859375 9.796875 33.730469 9.714844 35.9375 11.542969 Z M 28.800781 11.402344 C 28.800781 14.371094 28.800781 17.339844 28.800781 20.398438 C 30.425781 20.398438 31.792969 20.351562 33.003906 19.207031 C 33.945312 18.175781 34.140625 17.132812 34.132812 15.761719 C 34.128906 15.660156 34.128906 15.5625 34.128906 15.453125 C 34.109375 14.203125 33.871094 13.152344 33.019531 12.195312 C 32.269531 11.484375 31.34375 11.1875 30.324219 11.179688 C 30.210938 11.179688 30.09375 11.175781 29.96875 11.175781 C 29.523438 11.195312 29.523438 11.195312 28.800781 11.402344 Z M 28.800781 11.402344 "/>
<path style=" stroke:none;fill-rule:nonzero;fill:rgb(10.588235%,19.607843%,28.235295%);fill-opacity:1;" d="M 29.300781 31.199219 C 29.542969 31.296875 29.671875 31.351562 29.800781 31.585938 C 29.828125 31.65625 29.851562 31.734375 29.878906 31.808594 C 30.285156 32.921875 30.285156 32.921875 31.148438 33.675781 C 31.425781 33.792969 31.703125 33.90625 31.988281 34.015625 C 32.347656 34.160156 32.679688 34.351562 33.019531 34.535156 C 33.65625 34.882812 34.3125 35.199219 34.96875 35.503906 C 35.703125 35.851562 36.40625 36.21875 37.105469 36.632812 C 37.441406 36.820312 37.785156 36.984375 38.140625 37.132812 C 38.300781 37.199219 38.300781 37.199219 38.402344 37.300781 C 38.394531 37.496094 38.382812 37.6875 38.367188 37.882812 C 38.359375 38.011719 38.347656 38.140625 38.335938 38.277344 C 38.308594 38.621094 38.269531 38.964844 38.230469 39.3125 C 38.082031 40.660156 38.027344 42.015625 37.96875 43.371094 C 37.964844 43.5 37.964844 43.5 37.957031 43.632812 C 37.949219 43.796875 37.945312 43.964844 37.9375 44.128906 C 37.910156 44.6875 37.910156 44.6875 37.800781 44.800781 C 37.152344 44.75 36.546875 44.632812 35.917969 44.476562 C 35.78125 44.441406 35.78125 44.441406 35.644531 44.410156 C 35.363281 44.339844 35.082031 44.269531 34.800781 44.199219 C 34.714844 44.179688 34.628906 44.15625 34.539062 44.136719 C 34.125 44.035156 33.714844 43.929688 33.304688 43.824219 C 32.949219 43.734375 32.59375 43.652344 32.242188 43.570312 C 32.148438 43.546875 32.054688 43.523438 31.964844 43.5 C 31.789062 43.460938 31.613281 43.417969 31.4375 43.378906 C 31.355469 43.359375 31.277344 43.339844 31.195312 43.320312 C 31.128906 43.304688 31.058594 43.289062 30.984375 43.273438 C 30.699219 43.160156 30.550781 43 30.414062 42.722656 C 30.390625 42.660156 30.367188 42.59375 30.34375 42.523438 C 30.316406 42.449219 30.289062 42.378906 30.257812 42.300781 C 30.230469 42.21875 30.203125 42.140625 30.175781 42.054688 C 30.144531 41.972656 30.113281 41.890625 30.082031 41.800781 C 29.832031 41.105469 29.59375 40.402344 29.351562 39.699219 C 29.164062 39.164062 28.957031 38.644531 28.730469 38.125 C 28.558594 37.695312 28.40625 37.257812 28.257812 36.820312 C 27.828125 35.585938 27.355469 34.378906 26.800781 33.199219 C 27.125 32.851562 27.492188 32.582031 27.882812 32.3125 C 28.378906 31.964844 28.851562 31.605469 29.300781 31.199219 Z M 29.300781 31.199219 "/>
<path style=" stroke:none;fill-rule:nonzero;fill:rgb(60.392159%,54.11765%,34.117648%);fill-opacity:1;" d="M 14.097656 15.800781 C 14.199219 15.863281 14.296875 15.933594 14.398438 16 C 14.398438 16.066406 14.398438 16.132812 14.398438 16.199219 C 14.457031 16.226562 14.515625 16.25 14.578125 16.273438 C 15.429688 16.753906 15.824219 17.878906 16.074219 18.765625 C 16.226562 19.46875 16.433594 20.734375 16.097656 21.402344 C 15.554688 21.429688 15.140625 21.335938 14.644531 21.125 C 14.546875 21.089844 14.546875 21.089844 14.453125 21.050781 C 13.390625 20.609375 13.390625 20.609375 13.183594 20.132812 C 13.089844 19.761719 13.078125 19.449219 13.082031 19.070312 C 13.082031 19.003906 13.085938 18.933594 13.085938 18.867188 C 13.085938 18.652344 13.089844 18.4375 13.09375 18.226562 C 13.097656 18.011719 13.101562 17.796875 13.101562 17.582031 C 13.101562 17.386719 13.105469 17.191406 13.109375 16.996094 C 13.121094 16.707031 13.121094 16.707031 13 16.5 C 12.40625 16.539062 12.03125 16.6875 11.597656 17.101562 C 11.296875 17.519531 11.234375 17.914062 11.253906 18.421875 C 11.382812 19.183594 11.808594 19.90625 12.398438 20.398438 C 12.464844 20.460938 12.523438 20.523438 12.589844 20.585938 C 14.140625 22.074219 16.546875 22.484375 18.597656 22.847656 C 21.886719 23.441406 25.234375 24.546875 27.261719 27.386719 C 27.535156 27.8125 27.769531 28.253906 28 28.699219 C 28.054688 28.804688 28.113281 28.910156 28.171875 29.015625 C 28.226562 29.121094 28.28125 29.222656 28.335938 29.332031 C 28.386719 29.425781 28.4375 29.519531 28.492188 29.617188 C 28.617188 29.945312 28.648438 30.152344 28.597656 30.5 C 28.339844 30.914062 27.992188 31.183594 27.605469 31.476562 C 27.503906 31.554688 27.402344 31.628906 27.296875 31.710938 C 27.015625 31.890625 26.828125 31.964844 26.5 32 C 25.832031 31.058594 25.832031 31.058594 25.554688 30.601562 C 23.894531 27.910156 21.390625 27.066406 18.476562 26.375 C 18.296875 26.332031 18.121094 26.292969 17.945312 26.25 C 15.28125 25.621094 12.523438 24.902344 10.902344 22.5 C 10.855469 22.445312 10.816406 22.386719 10.769531 22.328125 C 10 21.242188 9.691406 19.710938 9.863281 18.40625 C 10.050781 17.453125 10.359375 16.464844 11.199219 15.902344 C 12.191406 15.394531 13.082031 15.355469 14.097656 15.800781 Z M 14.097656 15.800781 "/>
<path style=" stroke:none;fill-rule:nonzero;fill:rgb(9.803922%,18.82353%,27.058825%);fill-opacity:1;" d="M 12.007812 10.0625 C 12.164062 10.0625 12.164062 10.0625 12.324219 10.0625 C 12.496094 10.0625 12.496094 10.0625 12.671875 10.0625 C 12.792969 10.0625 12.914062 10.0625 13.035156 10.0625 C 13.367188 10.0625 13.699219 10.0625 14.03125 10.066406 C 14.378906 10.066406 14.722656 10.066406 15.070312 10.066406 C 15.652344 10.066406 16.234375 10.070312 16.8125 10.074219 C 17.5625 10.074219 18.308594 10.074219 19.058594 10.074219 C 19.699219 10.074219 20.339844 10.078125 20.980469 10.078125 C 21.1875 10.082031 21.394531 10.082031 21.601562 10.082031 C 21.988281 10.082031 22.371094 10.082031 22.753906 10.082031 C 22.871094 10.082031 22.984375 10.082031 23.101562 10.082031 C 23.207031 10.082031 23.3125 10.085938 23.417969 10.085938 C 23.511719 10.085938 23.601562 10.085938 23.695312 10.085938 C 23.902344 10.101562 23.902344 10.101562 24 10.199219 C 24.007812 10.335938 24.011719 10.472656 24.011719 10.609375 C 24.011719 10.699219 24.011719 10.785156 24.015625 10.875 C 24.011719 11.015625 24.011719 11.015625 24.011719 11.160156 C 24.011719 11.257812 24.011719 11.355469 24.011719 11.457031 C 24.011719 11.660156 24.011719 11.867188 24.011719 12.070312 C 24.011719 12.386719 24.011719 12.699219 24.011719 13.011719 C 24.011719 13.214844 24.011719 13.414062 24.011719 13.609375 C 24.011719 13.707031 24.015625 13.800781 24.015625 13.898438 C 24.011719 14.027344 24.011719 14.027344 24.011719 14.164062 C 24.011719 14.242188 24.011719 14.320312 24.011719 14.398438 C 24 14.601562 24 14.601562 23.902344 14.898438 C 23.539062 14.898438 23.175781 14.898438 22.800781 14.898438 C 22.789062 14.738281 22.789062 14.738281 22.777344 14.570312 C 22.695312 13.589844 22.585938 12.515625 21.800781 11.824219 C 21.46875 11.617188 21.1875 11.585938 20.804688 11.578125 C 20.65625 11.578125 20.65625 11.578125 20.5 11.574219 C 20.394531 11.570312 20.289062 11.570312 20.175781 11.566406 C 20.078125 11.566406 19.980469 11.566406 19.878906 11.5625 C 19.515625 11.558594 19.144531 11.546875 18.78125 11.542969 C 17.964844 11.527344 17.144531 11.515625 16.300781 11.5 C 16.265625 13.183594 16.234375 14.867188 16.199219 16.597656 C 16.132812 16.597656 16.070312 16.597656 16 16.597656 C 15.84375 16.421875 15.84375 16.421875 15.667969 16.179688 C 15.191406 15.53125 14.75 15.136719 14.019531 14.820312 C 13.949219 14.789062 13.882812 14.757812 13.808594 14.722656 C 13.636719 14.648438 13.472656 14.574219 13.300781 14.5 C 13.296875 14.394531 13.292969 14.289062 13.289062 14.183594 C 13.265625 12.90625 13.265625 12.90625 12.730469 11.792969 C 12.457031 11.566406 12.214844 11.480469 11.878906 11.371094 C 11.558594 11.242188 11.558594 11.242188 11.300781 11.097656 C 11.15625 10.738281 11.15625 10.738281 11.199219 10.398438 C 11.429688 10.078125 11.621094 10.0625 12.007812 10.0625 Z M 12.007812 10.0625 "/>
<path style=" stroke:none;fill-rule:nonzero;fill:rgb(10.980392%,19.215687%,28.627452%);fill-opacity:1;" d="M 13.300781 25.800781 C 13.714844 25.875 14.023438 26.011719 14.398438 26.199219 C 14.636719 26.273438 14.875 26.34375 15.113281 26.40625 C 15.496094 26.507812 15.851562 26.605469 16.199219 26.800781 C 16.199219 26.976562 16.199219 26.976562 16.199219 27.164062 C 16.207031 28.332031 16.207031 28.332031 16.734375 29.34375 C 17.425781 29.992188 18.40625 30.035156 19.304688 30.023438 C 19.445312 30.023438 19.445312 30.023438 19.585938 30.023438 C 20.789062 30.003906 21.871094 29.980469 22.84375 29.207031 C 23.144531 29.082031 23.207031 29.105469 23.507812 29.214844 C 24.074219 29.464844 24.074219 29.464844 24.300781 29.699219 C 24.398438 30.199219 24.398438 30.199219 24.398438 31.402344 C 20.042969 31.402344 15.6875 31.402344 11.199219 31.402344 C 11.199219 31.070312 11.199219 30.738281 11.199219 30.398438 C 11.292969 30.359375 11.390625 30.316406 11.488281 30.277344 C 12.503906 29.816406 12.503906 29.816406 13.101562 28.902344 C 13.207031 28.570312 13.21875 28.304688 13.230469 27.957031 C 13.238281 27.832031 13.238281 27.707031 13.246094 27.578125 C 13.246094 27.445312 13.253906 27.316406 13.257812 27.183594 C 13.261719 27.046875 13.265625 26.914062 13.269531 26.78125 C 13.28125 26.453125 13.289062 26.128906 13.300781 25.800781 Z M 13.300781 25.800781 "/>
<path style=" stroke:none;fill-rule:nonzero;fill:rgb(11.372549%,19.607843%,27.843139%);fill-opacity:1;" d="M 21.800781 17 C 22.097656 17 22.394531 17 22.699219 17 C 22.699219 18.8125 22.699219 20.628906 22.699219 22.5 C 22.101562 22.5 22.101562 22.5 21.894531 22.355469 C 21.71875 22.125 21.589844 21.90625 21.457031 21.648438 C 21.195312 21.167969 20.941406 20.894531 20.425781 20.691406 C 20.089844 20.597656 19.804688 20.570312 19.457031 20.5625 C 19.339844 20.558594 19.21875 20.554688 19.097656 20.550781 C 18.972656 20.550781 18.851562 20.546875 18.726562 20.542969 C 18.480469 20.539062 18.234375 20.53125 17.988281 20.523438 C 17.828125 20.523438 17.828125 20.523438 17.660156 20.515625 C 17.398438 20.5 17.398438 20.5 17.199219 20.398438 C 17.230469 19.871094 17.265625 19.34375 17.300781 18.800781 C 17.476562 18.804688 17.652344 18.804688 17.835938 18.8125 C 18.070312 18.8125 18.304688 18.816406 18.539062 18.820312 C 18.652344 18.824219 18.769531 18.824219 18.886719 18.824219 C 19.71875 18.832031 20.496094 18.789062 21.1875 18.292969 C 21.480469 17.894531 21.636719 17.464844 21.800781 17 Z M 21.800781 17 "/>
</g>
</svg>
